<?xml version="1.0" encoding="UTF-8" standalone="no"?>
<!DOCTYPE svg PUBLIC "-//W3C//DTD SVG 1.1//EN"
 "http://www.w3.org/Graphics/SVG/1.1/DTD/svg11.dtd">
<!-- Generated by graphviz version 2.38.0 (20140413.2041)
 -->
<!-- Title: G Pages: 1 -->
<svg width="909pt" height="258pt"
 viewBox="0.00 0.00 909.04 258.00" xmlns="http://www.w3.org/2000/svg" xmlns:xlink="http://www.w3.org/1999/xlink">
<g id="graph0" class="graph" transform="scale(1 1) rotate(0) translate(4 254)">
<title>G</title>
<polygon fill="white" stroke="none" points="-4,4 -4,-254 905.038,-254 905.038,4 -4,4"/>
<g id="clust1" class="cluster"><title>cluster_Global</title>
<path fill="none" stroke="gray" d="M750.038,-8C750.038,-8 881.038,-8 881.038,-8 887.038,-8 893.038,-14 893.038,-20 893.038,-20 893.038,-230 893.038,-230 893.038,-236 887.038,-242 881.038,-242 881.038,-242 750.038,-242 750.038,-242 744.038,-242 738.038,-236 738.038,-230 738.038,-230 738.038,-20 738.038,-20 738.038,-14 744.038,-8 750.038,-8"/>
<text text-anchor="middle" x="815.538" y="-229.2" font-family="Times New Roman,serif" font-size="11.00" fill="gray">Global</text>
</g>
<g id="clust2" class="cluster"><title>cluster_\Slothsoft</title>
<path fill="none" stroke="gray" d="M758.038,-16C758.038,-16 873.038,-16 873.038,-16 879.038,-16 885.038,-22 885.038,-28 885.038,-28 885.038,-202 885.038,-202 885.038,-208 879.038,-214 873.038,-214 873.038,-214 758.038,-214 758.038,-214 752.038,-214 746.038,-208 746.038,-202 746.038,-202 746.038,-28 746.038,-28 746.038,-22 752.038,-16 758.038,-16"/>
<text text-anchor="middle" x="815.538" y="-201.2" font-family="Times New Roman,serif" font-size="11.00" fill="gray">Slothsoft</text>
</g>
<g id="clust3" class="cluster"><title>cluster_\Slothsoft\WhatTheHell</title>
<path fill="none" stroke="gray" d="M766.038,-24C766.038,-24 865.038,-24 865.038,-24 871.038,-24 877.038,-30 877.038,-36 877.038,-36 877.038,-174 877.038,-174 877.038,-180 871.038,-186 865.038,-186 865.038,-186 766.038,-186 766.038,-186 760.038,-186 754.038,-180 754.038,-174 754.038,-174 754.038,-36 754.038,-36 754.038,-30 760.038,-24 766.038,-24"/>
<text text-anchor="middle" x="815.538" y="-173.2" font-family="Times New Roman,serif" font-size="11.00" fill="gray">WhatTheHell</text>
</g>
<g id="clust4" class="cluster"><title>cluster_\Slothsoft\WhatTheHell\Assets</title>
<path fill="none" stroke="gray" d="M774.038,-32C774.038,-32 857.038,-32 857.038,-32 863.038,-32 869.038,-38 869.038,-44 869.038,-44 869.038,-146 869.038,-146 869.038,-152 863.038,-158 857.038,-158 857.038,-158 774.038,-158 774.038,-158 768.038,-158 762.038,-152 762.038,-146 762.038,-146 762.038,-44 762.038,-44 762.038,-38 768.038,-32 774.038,-32"/>
<text text-anchor="middle" x="815.538" y="-145.2" font-family="Times New Roman,serif" font-size="11.00" fill="gray">Assets</text>
</g>
<!-- \\Slothsoft\\WhatTheHell\\Assets\\PushBuilder -->
<g id="node1" class="node"><title>\\Slothsoft\\WhatTheHell\\Assets\\PushBuilder</title>
<polygon fill="none" stroke="black" points="861.038,-130 770.038,-130 770.038,-94 861.038,-94 861.038,-130"/>
<text text-anchor="middle" x="815.538" y="-109.2" font-family="Courier,monospace" font-size="11.00">PushBuilder</text>
</g>
<!-- \\Slothsoft\\Farah\\Module\\Asset\\ExecutableBuilderStrategy\\ExecutableBuilderStrategyInterface -->
<g id="node3" class="node"><title>\\Slothsoft\\Farah\\Module\\Asset\\ExecutableBuilderStrategy\\ExecutableBuilderStrategyInterface</title>
<ellipse fill="none" stroke="black" cx="349.019" cy="-85" rx="349.038" ry="18"/>
<text text-anchor="middle" x="349.019" y="-81.3" font-family="Times New Roman,serif" font-size="14.00" fill="gray">\Slothsoft\Farah\Module\Asset\ExecutableBuilderStrategy\ExecutableBuilderStrategyInterface</text>
</g>
<!-- \\Slothsoft\\WhatTheHell\\Assets\\PushBuilder&#45;&gt;\\Slothsoft\\Farah\\Module\\Asset\\ExecutableBuilderStrategy\\ExecutableBuilderStrategyInterface -->
<g id="edge1" class="edge"><title>\\Slothsoft\\WhatTheHell\\Assets\\PushBuilder&#45;&gt;\\Slothsoft\\Farah\\Module\\Asset\\ExecutableBuilderStrategy\\ExecutableBuilderStrategyInterface</title>
<path fill="none" stroke="black" stroke-dasharray="1,5" d="M769.998,-109.411C727.522,-106.942 660.028,-103.019 591.465,-99.034"/>
<polygon fill="none" stroke="black" points="591.531,-95.532 581.344,-98.4457 591.124,-102.52 591.531,-95.532"/>
</g>
<!-- \\Slothsoft\\WhatTheHell\\Assets\\PullBuilder -->
<g id="node2" class="node"><title>\\Slothsoft\\WhatTheHell\\Assets\\PullBuilder</title>
<polygon fill="none" stroke="black" points="861.038,-76 770.038,-76 770.038,-40 861.038,-40 861.038,-76"/>
<text text-anchor="middle" x="815.538" y="-55.2" font-family="Courier,monospace" font-size="11.00">PullBuilder</text>
</g>
<!-- \\Slothsoft\\WhatTheHell\\Assets\\PullBuilder&#45;&gt;\\Slothsoft\\Farah\\Module\\Asset\\ExecutableBuilderStrategy\\ExecutableBuilderStrategyInterface -->
<g id="edge2" class="edge"><title>\\Slothsoft\\WhatTheHell\\Assets\\PullBuilder&#45;&gt;\\Slothsoft\\Farah\\Module\\Asset\\ExecutableBuilderStrategy\\ExecutableBuilderStrategyInterface</title>
<path fill="none" stroke="black" stroke-dasharray="1,5" d="M769.998,-60.5889C727.522,-63.0578 660.028,-66.9808 591.465,-70.966"/>
<polygon fill="none" stroke="black" points="591.124,-67.4798 581.344,-71.5543 591.531,-74.468 591.124,-67.4798"/>
</g>
</g>
</svg>
