<?xml version="1.0" encoding="UTF-8" standalone="no"?>
<!DOCTYPE svg PUBLIC "-//W3C//DTD SVG 1.1//EN"
 "http://www.w3.org/Graphics/SVG/1.1/DTD/svg11.dtd">
<!-- Generated by graphviz version 2.38.0 (20140413.2041)
 -->
<!-- Title: G Pages: 1 -->
<svg width="544pt" height="258pt"
 viewBox="0.00 0.00 544.47 258.00" xmlns="http://www.w3.org/2000/svg" xmlns:xlink="http://www.w3.org/1999/xlink">
<g id="graph0" class="graph" transform="scale(1 1) rotate(0) translate(4 254)">
<title>G</title>
<polygon fill="white" stroke="none" points="-4,4 -4,-254 540.467,-254 540.467,4 -4,4"/>
<g id="clust1" class="cluster"><title>cluster_Global</title>
<path fill="none" stroke="gray" d="M422.467,-8C422.467,-8 516.467,-8 516.467,-8 522.467,-8 528.467,-14 528.467,-20 528.467,-20 528.467,-230 528.467,-230 528.467,-236 522.467,-242 516.467,-242 516.467,-242 422.467,-242 422.467,-242 416.467,-242 410.467,-236 410.467,-230 410.467,-230 410.467,-20 410.467,-20 410.467,-14 416.467,-8 422.467,-8"/>
<text text-anchor="middle" x="469.467" y="-229.2" font-family="Times New Roman,serif" font-size="11.00" fill="gray">Global</text>
</g>
<g id="clust2" class="cluster"><title>cluster_\Slothsoft</title>
<path fill="none" stroke="gray" d="M430.467,-16C430.467,-16 508.467,-16 508.467,-16 514.467,-16 520.467,-22 520.467,-28 520.467,-28 520.467,-202 520.467,-202 520.467,-208 514.467,-214 508.467,-214 508.467,-214 430.467,-214 430.467,-214 424.467,-214 418.467,-208 418.467,-202 418.467,-202 418.467,-28 418.467,-28 418.467,-22 424.467,-16 430.467,-16"/>
<text text-anchor="middle" x="469.467" y="-201.2" font-family="Times New Roman,serif" font-size="11.00" fill="gray">Slothsoft</text>
</g>
<g id="clust3" class="cluster"><title>cluster_\Slothsoft\WhatTheHell</title>
<path fill="none" stroke="gray" d="M438.467,-24C438.467,-24 500.467,-24 500.467,-24 506.467,-24 512.467,-30 512.467,-36 512.467,-36 512.467,-174 512.467,-174 512.467,-180 506.467,-186 500.467,-186 500.467,-186 438.467,-186 438.467,-186 432.467,-186 426.467,-180 426.467,-174 426.467,-174 426.467,-36 426.467,-36 426.467,-30 432.467,-24 438.467,-24"/>
<text text-anchor="middle" x="469.467" y="-173.2" font-family="Times New Roman,serif" font-size="11.00" fill="gray">WhatTheHell</text>
</g>
<g id="clust4" class="cluster"><title>cluster_\Slothsoft\WhatTheHell\Assets</title>
<path fill="none" stroke="gray" d="M446.467,-32C446.467,-32 492.467,-32 492.467,-32 498.467,-32 504.467,-38 504.467,-44 504.467,-44 504.467,-146 504.467,-146 504.467,-152 498.467,-158 492.467,-158 492.467,-158 446.467,-158 446.467,-158 440.467,-158 434.467,-152 434.467,-146 434.467,-146 434.467,-44 434.467,-44 434.467,-38 440.467,-32 446.467,-32"/>
<text text-anchor="middle" x="469.467" y="-145.2" font-family="Times New Roman,serif" font-size="11.00" fill="gray">Assets</text>
</g>
<!-- \\Slothsoft\\WhatTheHell\\Assets\\Pull -->
<g id="node1" class="node"><title>\\Slothsoft\\WhatTheHell\\Assets\\Pull</title>
<polygon fill="none" stroke="black" points="496.467,-130 442.467,-130 442.467,-94 496.467,-94 496.467,-130"/>
<text text-anchor="middle" x="469.467" y="-109.2" font-family="Courier,monospace" font-size="11.00">Pull</text>
</g>
<!-- \\Slothsoft\\Farah\\Module\\Node\\Asset\\AssetBase -->
<g id="node3" class="node"><title>\\Slothsoft\\Farah\\Module\\Node\\Asset\\AssetBase</title>
<ellipse fill="none" stroke="black" cx="185.234" cy="-85" rx="185.467" ry="18"/>
<text text-anchor="middle" x="185.234" y="-81.3" font-family="Times New Roman,serif" font-size="14.00" fill="gray">\Slothsoft\Farah\Module\Node\Asset\AssetBase</text>
</g>
<!-- \\Slothsoft\\WhatTheHell\\Assets\\Pull&#45;&gt;\\Slothsoft\\Farah\\Module\\Node\\Asset\\AssetBase -->
<g id="edge1" class="edge"><title>\\Slothsoft\\WhatTheHell\\Assets\\Pull&#45;&gt;\\Slothsoft\\Farah\\Module\\Node\\Asset\\AssetBase</title>
<path fill="none" stroke="black" d="M442.421,-109.508C415.652,-106.947 371.789,-102.751 327.86,-98.5488"/>
<polygon fill="none" stroke="black" points="328.187,-95.0642 317.899,-97.5959 327.521,-102.032 328.187,-95.0642"/>
</g>
<!-- \\Slothsoft\\WhatTheHell\\Assets\\Push -->
<g id="node2" class="node"><title>\\Slothsoft\\WhatTheHell\\Assets\\Push</title>
<polygon fill="none" stroke="black" points="496.467,-76 442.467,-76 442.467,-40 496.467,-40 496.467,-76"/>
<text text-anchor="middle" x="469.467" y="-55.2" font-family="Courier,monospace" font-size="11.00">Push</text>
</g>
<!-- \\Slothsoft\\WhatTheHell\\Assets\\Push&#45;&gt;\\Slothsoft\\Farah\\Module\\Node\\Asset\\AssetBase -->
<g id="edge2" class="edge"><title>\\Slothsoft\\WhatTheHell\\Assets\\Push&#45;&gt;\\Slothsoft\\Farah\\Module\\Node\\Asset\\AssetBase</title>
<path fill="none" stroke="black" d="M442.421,-60.4917C415.652,-63.0526 371.789,-67.2488 327.86,-71.4512"/>
<polygon fill="none" stroke="black" points="327.521,-67.9676 317.899,-72.4041 328.187,-74.9358 327.521,-67.9676"/>
</g>
</g>
</svg>
